<svg width="152" height="24" viewBox="0 0 152 24" fill="none" xmlns="http://www.w3.org/2000/svg">
<path d="M23.3522 8.57131L15.9755 7.44488L12.6702 0.394281C12.5983 0.2736 12.4984 0.17411 12.3799 0.105145C12.2614 0.0361795 12.1281 0 11.9927 0C11.8572 0 11.724 0.0361795 11.6055 0.105145C11.487 0.17411 11.3871 0.2736 11.3151 0.394281L8.00981 7.45451L0.636161 8.57131C0.502582 8.5851 0.37552 8.63869 0.26991 8.72579C0.164299 8.81289 0.0845294 8.92988 0.0399754 9.06301C-0.0045786 9.19615 -0.0120651 9.33988 0.0183959 9.47733C0.0488568 9.61478 0.115999 9.74024 0.211932 9.83894L5.5682 15.3427L4.30162 23.1154C4.28541 23.2587 4.30717 23.4039 4.36448 23.535C4.4218 23.6661 4.51245 23.778 4.62644 23.8583C4.74042 23.9387 4.87329 23.9843 5.0104 23.9903C5.1475 23.9962 5.28351 23.9622 5.40339 23.892L11.9927 20.2464L18.5789 23.8952C18.6988 23.9654 18.8348 23.9994 18.9719 23.9935C19.109 23.9875 19.2419 23.9419 19.3559 23.8615C19.4698 23.7812 19.5605 23.6693 19.6178 23.5382C19.6751 23.4071 19.6969 23.2619 19.6807 23.1186L18.4171 15.3427L23.7734 9.83894C23.8694 9.74024 23.9365 9.61478 23.967 9.47733C23.9974 9.33988 23.9899 9.19615 23.9454 9.06301C23.9008 8.92988 23.8211 8.81289 23.7154 8.72579C23.6098 8.63869 23.4828 8.5851 23.3492 8.57131H23.3522Z" fill="#FF9F0D"/>
<path d="M55.3327 8.57131L47.956 7.44488L44.6507 0.394281C44.5788 0.2736 44.4788 0.17411 44.3603 0.105145C44.2418 0.0361795 44.1086 0 43.9731 0C43.8377 0 43.7045 0.0361795 43.586 0.105145C43.4674 0.17411 43.3675 0.2736 43.2956 0.394281L39.9903 7.45451L32.6166 8.57131C32.4831 8.5851 32.356 8.63869 32.2504 8.72579C32.1448 8.81289 32.065 8.92988 32.0204 9.06301C31.9759 9.19615 31.9684 9.33988 31.9989 9.47733C32.0293 9.61478 32.0965 9.74024 32.1924 9.83894L37.5487 15.3427L36.2821 23.1154C36.2659 23.2587 36.2876 23.4039 36.345 23.535C36.4023 23.6661 36.4929 23.778 36.6069 23.8583C36.7209 23.9387 36.8538 23.9843 36.9909 23.9903C37.128 23.9962 37.264 23.9622 37.3839 23.892L43.9731 20.2464L50.5594 23.8952C50.6793 23.9654 50.8153 23.9994 50.9524 23.9935C51.0895 23.9875 51.2224 23.9419 51.3363 23.8615C51.4503 23.7812 51.541 23.6693 51.5983 23.5382C51.6556 23.4071 51.6774 23.2619 51.6611 23.1186L50.3976 15.3427L55.7539 9.83894C55.8498 9.74024 55.917 9.61478 55.9474 9.47733C55.9779 9.33988 55.9704 9.19615 55.9258 9.06301C55.8813 8.92988 55.8015 8.81289 55.6959 8.72579C55.5903 8.63869 55.4632 8.5851 55.3297 8.57131H55.3327Z" fill="#FF9F0D"/>
<path d="M87.3132 8.57131L79.9365 7.44488L76.6312 0.394281C76.5592 0.2736 76.4593 0.17411 76.3408 0.105145C76.2223 0.0361795 76.0891 0 75.9536 0C75.8182 0 75.6849 0.0361795 75.5664 0.105145C75.4479 0.17411 75.348 0.2736 75.2761 0.394281L71.9707 7.45451L64.5971 8.57131C64.4635 8.5851 64.3365 8.63869 64.2308 8.72579C64.1252 8.81289 64.0455 8.92988 64.0009 9.06301C63.9564 9.19615 63.9489 9.33988 63.9793 9.47733C64.0098 9.61478 64.0769 9.74024 64.1729 9.83894L69.5291 15.3427L68.2626 23.1154C68.2463 23.2587 68.2681 23.4039 68.3254 23.535C68.3827 23.6661 68.4734 23.778 68.5874 23.8583C68.7014 23.9387 68.8342 23.9843 68.9713 23.9903C69.1084 23.9962 69.2444 23.9622 69.3643 23.892L75.9536 20.2464L82.5398 23.8952C82.6597 23.9654 82.7957 23.9994 82.9328 23.9935C83.0699 23.9875 83.2028 23.9419 83.3168 23.8615C83.4308 23.7812 83.5214 23.6693 83.5788 23.5382C83.6361 23.4071 83.6578 23.2619 83.6416 23.1186L82.3781 15.3427L87.7344 9.83894C87.8303 9.74024 87.8974 9.61478 87.9279 9.47733C87.9584 9.33988 87.9509 9.19615 87.9063 9.06301C87.8618 8.92988 87.782 8.81289 87.6764 8.72579C87.5708 8.63869 87.4437 8.5851 87.3101 8.57131H87.3132Z" fill="#FF9F0D"/>
<path d="M119.294 8.57131L111.917 7.44488L108.612 0.394281C108.54 0.2736 108.44 0.17411 108.321 0.105145C108.203 0.0361795 108.07 0 107.934 0C107.799 0 107.665 0.0361795 107.547 0.105145C107.428 0.17411 107.328 0.2736 107.257 0.394281L103.951 7.45451L96.5776 8.57131C96.444 8.5851 96.3169 8.63869 96.2113 8.72579C96.1057 8.81289 96.0259 8.92988 95.9814 9.06301C95.9368 9.19615 95.9293 9.33988 95.9598 9.47733C95.9903 9.61478 96.0574 9.74024 96.1533 9.83894L101.51 15.3427L100.243 23.1154C100.227 23.2587 100.249 23.4039 100.306 23.535C100.363 23.6661 100.454 23.778 100.568 23.8583C100.682 23.9387 100.815 23.9843 100.952 23.9903C101.089 23.9962 101.225 23.9622 101.345 23.892L107.934 20.2464L114.52 23.8952C114.64 23.9654 114.776 23.9994 114.913 23.9935C115.05 23.9875 115.183 23.9419 115.297 23.8615C115.411 23.7812 115.502 23.6693 115.559 23.5382C115.616 23.4071 115.638 23.2619 115.622 23.1186L114.359 15.3427L119.715 9.83894C119.811 9.74024 119.878 9.61478 119.908 9.47733C119.939 9.33988 119.931 9.19615 119.887 9.06301C119.842 8.92988 119.762 8.81289 119.657 8.72579C119.551 8.63869 119.424 8.5851 119.291 8.57131H119.294Z" fill="#FF9F0D"/>
<path d="M151.274 8.57131L143.897 7.44488L140.592 0.394281C140.52 0.2736 140.42 0.17411 140.302 0.105145C140.183 0.0361795 140.05 0 139.914 0C139.779 0 139.646 0.0361795 139.527 0.105145C139.409 0.17411 139.309 0.2736 139.237 0.394281L135.932 7.45451L128.558 8.57131C128.424 8.5851 128.297 8.63869 128.192 8.72579C128.086 8.81289 128.006 8.92988 127.962 9.06301C127.917 9.19615 127.91 9.33988 127.94 9.47733C127.971 9.61478 128.038 9.74024 128.134 9.83894L133.49 15.3427L132.223 23.1154C132.207 23.2587 132.229 23.4039 132.286 23.535C132.344 23.6661 132.434 23.778 132.548 23.8583C132.662 23.9387 132.795 23.9843 132.932 23.9903C133.069 23.9962 133.205 23.9622 133.325 23.892L139.914 20.2464L146.501 23.8952C146.621 23.9654 146.757 23.9994 146.894 23.9935C147.031 23.9875 147.164 23.9419 147.278 23.8615C147.392 23.7812 147.482 23.6693 147.54 23.5382C147.597 23.4071 147.619 23.2619 147.602 23.1186L146.339 15.3427L151.695 9.83894C151.791 9.74024 151.858 9.61478 151.889 9.47733C151.919 9.33988 151.912 9.19615 151.867 9.06301C151.823 8.92988 151.743 8.81289 151.637 8.72579C151.532 8.63869 151.405 8.5851 151.271 8.57131H151.274Z" fill="#E0E0E0"/>
</svg>
