<svg width="64" height="9" viewBox="0 0 64 9" fill="none" xmlns="http://www.w3.org/2000/svg">
<path d="M9.9711 3.21503L6.94366 2.79251L5.58714 0.147892C5.55762 0.102625 5.51661 0.065307 5.46798 0.0394388C5.41934 0.0135706 5.36466 0 5.30907 0C5.25348 0 5.1988 0.0135706 5.15016 0.0394388C5.10153 0.065307 5.06052 0.102625 5.031 0.147892L3.67448 2.79612L0.648291 3.21503C0.593469 3.2202 0.541323 3.2403 0.497979 3.27297C0.454636 3.30564 0.421898 3.34952 0.403613 3.39946C0.385328 3.4494 0.382255 3.50331 0.394757 3.55487C0.407258 3.60642 0.434814 3.65348 0.474185 3.69051L2.67243 5.75492L2.15262 8.67039C2.14596 8.72413 2.15489 8.77859 2.17842 8.82777C2.20194 8.87694 2.23914 8.91891 2.28592 8.94905C2.3327 8.97919 2.38723 8.99632 2.4435 8.99855C2.49977 9.00078 2.55559 8.98802 2.60479 8.96169L5.30907 7.59424L8.0121 8.9629C8.0613 8.98923 8.11712 9.00198 8.17338 8.99975C8.22965 8.99752 8.28419 8.98039 8.33097 8.95025C8.37774 8.92012 8.41495 8.87815 8.43847 8.82897C8.462 8.7798 8.47092 8.72533 8.46427 8.67159L7.94571 5.75492L10.144 3.69051C10.1833 3.65348 10.2109 3.60642 10.2234 3.55487C10.2359 3.50331 10.2328 3.4494 10.2145 3.39946C10.1962 3.34952 10.1635 3.30564 10.1202 3.27297C10.0768 3.2403 10.0247 3.2202 9.96985 3.21503H9.9711Z" fill="#FF9F0D"/>
<path d="M23.7523 3.21503L20.7249 2.79251L19.3684 0.147892C19.3389 0.102625 19.2979 0.065307 19.2492 0.0394388C19.2006 0.0135706 19.1459 0 19.0903 0C19.0347 0 18.98 0.0135706 18.9314 0.0394388C18.8828 0.065307 18.8418 0.102625 18.8122 0.147892L17.4557 2.79612L14.4295 3.21503C14.3747 3.2202 14.3226 3.2403 14.2792 3.27297C14.2359 3.30564 14.2031 3.34952 14.1849 3.39946C14.1666 3.4494 14.1635 3.50331 14.176 3.55487C14.1885 3.60642 14.2161 3.65348 14.2554 3.69051L16.4537 5.75492L15.9339 8.67039C15.9272 8.72413 15.9361 8.77859 15.9597 8.82777C15.9832 8.87694 16.0204 8.91891 16.0672 8.94905C16.114 8.97919 16.1685 8.99632 16.2248 8.99855C16.281 9.00078 16.3368 8.98802 16.386 8.96169L19.0903 7.59424L21.7933 8.9629C21.8425 8.98923 21.8984 9.00198 21.9546 8.99975C22.0109 8.99752 22.0654 8.98039 22.1122 8.95025C22.159 8.92012 22.1962 8.87815 22.2197 8.82897C22.2432 8.7798 22.2522 8.72533 22.2455 8.67159L21.727 5.75492L23.9252 3.69051C23.9646 3.65348 23.9921 3.60642 24.0046 3.55487C24.0171 3.50331 24.0141 3.4494 23.9958 3.39946C23.9775 3.34952 23.9447 3.30564 23.9014 3.27297C23.8581 3.2403 23.8059 3.2202 23.7511 3.21503H23.7523Z" fill="#FF9F0D"/>
<path d="M36.5487 3.21503L33.5213 2.79251L32.1648 0.147892C32.1353 0.102625 32.0943 0.065307 32.0456 0.0394388C31.997 0.0135706 31.9423 0 31.8867 0C31.8311 0 31.7764 0.0135706 31.7278 0.0394388C31.6792 0.065307 31.6382 0.102625 31.6086 0.147892L30.2521 2.79612L27.2259 3.21503C27.1711 3.2202 27.119 3.2403 27.0756 3.27297C27.0323 3.30564 26.9995 3.34952 26.9812 3.39946C26.963 3.4494 26.9599 3.50331 26.9724 3.55487C26.9849 3.60642 27.0125 3.65348 27.0518 3.69051L29.2501 5.75492L28.7303 8.67039C28.7236 8.72413 28.7325 8.77859 28.7561 8.82777C28.7796 8.87694 28.8168 8.91891 28.8636 8.94905C28.9103 8.97919 28.9649 8.99632 29.0211 8.99855C29.0774 9.00078 29.1332 8.98802 29.1824 8.96169L31.8867 7.59424L34.5897 8.9629C34.6389 8.98923 34.6948 9.00198 34.751 8.99975C34.8073 8.99752 34.8618 8.98039 34.9086 8.95025C34.9554 8.92012 34.9926 8.87815 35.0161 8.82897C35.0396 8.7798 35.0486 8.72533 35.0419 8.67159L34.5233 5.75492L36.7216 3.69051C36.761 3.65348 36.7885 3.60642 36.801 3.55487C36.8135 3.50331 36.8104 3.4494 36.7922 3.39946C36.7739 3.34952 36.7411 3.30564 36.6978 3.27297C36.6545 3.2403 36.6023 3.2202 36.5475 3.21503H36.5487Z" fill="#E0E0E0"/>
<path d="M49.3461 3.21503L46.3187 2.79251L44.9621 0.147892C44.9326 0.102625 44.8916 0.065307 44.843 0.0394388C44.7943 0.0135706 44.7397 0 44.6841 0C44.6285 0 44.5738 0.0135706 44.5252 0.0394388C44.4765 0.065307 44.4355 0.102625 44.406 0.147892L43.0495 2.79612L40.0233 3.21503C39.9685 3.2202 39.9163 3.2403 39.873 3.27297C39.8296 3.30564 39.7969 3.34952 39.7786 3.39946C39.7603 3.4494 39.7573 3.50331 39.7698 3.55487C39.7823 3.60642 39.8098 3.65348 39.8492 3.69051L42.0474 5.75492L41.5276 8.67039C41.521 8.72413 41.5299 8.77859 41.5534 8.82777C41.5769 8.87694 41.6141 8.91891 41.6609 8.94905C41.7077 8.97919 41.7622 8.99632 41.8185 8.99855C41.8748 9.00078 41.9306 8.98802 41.9798 8.96169L44.6841 7.59424L47.3871 8.9629C47.4363 8.98923 47.4921 9.00198 47.5484 8.99975C47.6046 8.99752 47.6592 8.98039 47.706 8.95025C47.7527 8.92012 47.7899 8.87815 47.8135 8.82897C47.837 8.7798 47.8459 8.72533 47.8393 8.67159L47.3207 5.75492L49.5189 3.69051C49.5583 3.65348 49.5859 3.60642 49.5984 3.55487C49.6109 3.50331 49.6078 3.4494 49.5895 3.39946C49.5712 3.34952 49.5385 3.30564 49.4952 3.27297C49.4518 3.2403 49.3997 3.2202 49.3448 3.21503H49.3461Z" fill="#E0E0E0"/>
<path d="M63.1274 3.21503L60.0999 2.79251L58.7434 0.147892C58.7139 0.102625 58.6729 0.065307 58.6242 0.0394388C58.5756 0.0135706 58.5209 0 58.4653 0C58.4097 0 58.3551 0.0135706 58.3064 0.0394388C58.2578 0.065307 58.2168 0.102625 58.1873 0.147892L56.8307 2.79612L53.8045 3.21503C53.7497 3.2202 53.6976 3.2403 53.6542 3.27297C53.6109 3.30564 53.5781 3.34952 53.5599 3.39946C53.5416 3.4494 53.5385 3.50331 53.551 3.55487C53.5635 3.60642 53.5911 3.65348 53.6304 3.69051L55.8287 5.75492L55.3089 8.67039C55.3022 8.72413 55.3111 8.77859 55.3347 8.82777C55.3582 8.87694 55.3954 8.91891 55.4422 8.94905C55.489 8.97919 55.5435 8.99632 55.5998 8.99855C55.656 9.00078 55.7118 8.98802 55.761 8.96169L58.4653 7.59424L61.1684 8.9629C61.2176 8.98923 61.2734 9.00198 61.3296 8.99975C61.3859 8.99752 61.4404 8.98039 61.4872 8.95025C61.534 8.92012 61.5712 8.87815 61.5947 8.82897C61.6183 8.7798 61.6272 8.72533 61.6205 8.67159L61.102 5.75492L63.3002 3.69051C63.3396 3.65348 63.3671 3.60642 63.3796 3.55487C63.3921 3.50331 63.3891 3.4494 63.3708 3.39946C63.3525 3.34952 63.3198 3.30564 63.2764 3.27297C63.2331 3.2403 63.1809 3.2202 63.1261 3.21503H63.1274Z" fill="#E0E0E0"/>
</svg>
