<svg width="13" height="11" viewBox="0 0 13 11" fill="none" xmlns="http://www.w3.org/2000/svg">
<path d="M6.4375 5.12695C6.17383 5.39062 6.17383 5.83008 6.4375 6.12305L10.4219 10.1074C10.7148 10.3711 11.1543 10.3711 11.418 10.1074L12.0918 9.43359C12.3555 9.14062 12.3555 8.70117 12.0918 8.4375L9.25 5.5957L12.0918 2.7832C12.3555 2.51953 12.3555 2.08008 12.0918 1.78711L11.418 1.14258C11.1543 0.849609 10.7148 0.849609 10.4219 1.14258L6.4375 5.12695ZM0.8125 6.12305L4.79688 10.1074C5.08984 10.3711 5.5293 10.3711 5.79297 10.1074L6.4668 9.43359C6.73047 9.16992 6.73047 8.70117 6.4668 8.4375L3.625 5.625L6.4668 2.7832C6.73047 2.51953 6.73047 2.08008 6.4668 1.78711L5.79297 1.14258C5.5293 0.849609 5.06055 0.849609 4.79687 1.14258L0.8125 5.12695C0.548828 5.39063 0.548828 5.83008 0.8125 6.12305Z" fill="#FF9F0D"/>
</svg>
