<svg width="13" height="11" viewBox="0 0 13 11" fill="none" xmlns="http://www.w3.org/2000/svg">
<path d="M6.5625 5.87305C6.82617 5.60938 6.82617 5.16992 6.5625 4.87695L2.57812 0.892578C2.28516 0.628906 1.8457 0.628906 1.58203 0.892578L0.908203 1.56641C0.644531 1.85938 0.644531 2.29883 0.908203 2.5625L3.75 5.4043L0.908203 8.2168C0.644531 8.48047 0.644531 8.91992 0.908203 9.21289L1.58203 9.85742C1.8457 10.1504 2.28516 10.1504 2.57812 9.85742L6.5625 5.87305ZM12.1875 4.87695L8.20312 0.892578C7.91016 0.628906 7.4707 0.628906 7.20703 0.892578L6.5332 1.56641C6.26953 1.83008 6.26953 2.29883 6.5332 2.5625L9.375 5.375L6.5332 8.2168C6.26953 8.48047 6.26953 8.91992 6.5332 9.21289L7.20703 9.85742C7.4707 10.1504 7.93945 10.1504 8.20312 9.85742L12.1875 5.87305C12.4512 5.60938 12.4512 5.16992 12.1875 4.87695Z" fill="#FF9F0D"/>
</svg>
