<svg width="48" height="48" viewBox="0 0 48 48" fill="none" xmlns="http://www.w3.org/2000/svg">
<path d="M20.2376 26.9934H7.49542C7.09784 26.9934 6.71654 26.8354 6.43541 26.5541C6.15428 26.2729 5.99634 25.8915 5.99634 25.4937V13.4967C5.99634 13.099 6.15428 12.7175 6.43541 12.4363C6.71654 12.1551 7.09784 11.9971 7.49542 11.9971H18.7386C19.1361 11.9971 19.5174 12.1551 19.7986 12.4363C20.0797 12.7175 20.2376 13.099 20.2376 13.4967V29.9926C20.2376 31.9813 19.4479 33.8885 18.0423 35.2946C16.6366 36.7008 14.7301 37.4908 12.7422 37.4908" stroke="#FF9F0D" stroke-width="1.5" stroke-linecap="round" stroke-linejoin="round"/>
<path d="M41.9743 26.9934H29.2321C28.8345 26.9934 28.4532 26.8354 28.1721 26.5541C27.891 26.2729 27.733 25.8915 27.733 25.4937V13.4967C27.733 13.099 27.891 12.7175 28.1721 12.4363C28.4532 12.1551 28.8345 11.9971 29.2321 11.9971H40.4753C40.8728 11.9971 41.2541 12.1551 41.5353 12.4363C41.8164 12.7175 41.9743 13.099 41.9743 13.4967V29.9926C41.9743 31.9813 41.1846 33.8885 39.779 35.2946C38.3733 36.7008 36.4668 37.4908 34.4789 37.4908" stroke="#FF9F0D" stroke-width="1.5" stroke-linecap="round" stroke-linejoin="round"/>
</svg>
