<svg width="78" height="71" viewBox="0 0 78 71" fill="none" xmlns="http://www.w3.org/2000/svg">
<rect width="77.234" height="70.7861" rx="3" fill="#FF9F0D"/>
<path d="M38.6167 28.0193V35.3928" stroke="white" stroke-width="1.5" stroke-linecap="round" stroke-linejoin="round"/>
<path d="M45.0481 39.0796L38.6167 35.3928" stroke="white" stroke-width="1.5" stroke-linecap="round" stroke-linejoin="round"/>
<path d="M47.3066 31.048H53.4953V24.9033" stroke="white" stroke-width="1.5" stroke-linecap="round" stroke-linejoin="round"/>
<path d="M48.2442 44.9515C46.3401 46.8421 43.9141 48.1296 41.2731 48.6512C38.632 49.1728 35.8945 48.9051 33.4067 47.8819C30.9189 46.8587 28.7925 45.1261 27.2965 42.903C25.8005 40.68 25.002 38.0664 25.002 35.3927C25.002 32.7191 25.8005 30.1055 27.2965 27.8824C28.7925 25.6594 30.9189 23.9267 33.4067 22.9035C35.8945 21.8804 38.632 21.6127 41.2731 22.1343C43.9141 22.6559 46.3401 23.9434 48.2442 25.8339L53.4954 31.0478" stroke="white" stroke-width="1.5" stroke-linecap="round" stroke-linejoin="round"/>
</svg>
