<svg width="120" height="120" viewBox="0 0 120 120" fill="none" xmlns="http://www.w3.org/2000/svg">
<path d="M20.001 65.9529C21.1064 65.9529 22.0025 65.0574 22.0025 63.9529C22.0025 62.8483 21.1064 61.9529 20.001 61.9529C18.8956 61.9529 17.9995 62.8483 17.9995 63.9529C17.9995 65.0574 18.8956 65.9529 20.001 65.9529Z" fill="#FF9F0D"/>
<path d="M28.0009 59.957C29.1063 59.957 30.0024 59.0616 30.0024 57.957C30.0024 56.8525 29.1063 55.957 28.0009 55.957C26.8954 55.957 25.9993 56.8525 25.9993 57.957C25.9993 59.0616 26.8954 59.957 28.0009 59.957Z" fill="#FF9F0D"/>
<path d="M48.0014 57.9585C49.1068 57.9585 50.0029 57.0631 50.0029 55.9585C50.0029 54.8539 49.1068 53.9585 48.0014 53.9585C46.8959 53.9585 45.9998 54.8539 45.9998 55.9585C45.9998 57.0631 46.8959 57.9585 48.0014 57.9585Z" fill="#FF9F0D"/>
<path d="M14.0024 75.9448C15.1078 75.9448 16.0039 75.0494 16.0039 73.9448C16.0039 72.8403 15.1078 71.9448 14.0024 71.9448C12.897 71.9448 12.0009 72.8403 12.0009 73.9448C12.0009 75.0494 12.897 75.9448 14.0024 75.9448Z" fill="#FF9F0D"/>
<path d="M24.0017 73.9465C25.1071 73.9465 26.0032 73.0511 26.0032 71.9465C26.0032 70.842 25.1071 69.9465 24.0017 69.9465C22.8962 69.9465 22.0001 70.842 22.0001 71.9465C22.0001 73.0511 22.8962 73.9465 24.0017 73.9465Z" fill="#FF9F0D"/>
<path d="M32.0012 67.9509C33.1066 67.9509 34.0027 67.0555 34.0027 65.9509C34.0027 64.8464 33.1066 63.9509 32.0012 63.9509C30.8958 63.9509 29.9996 64.8464 29.9996 65.9509C29.9996 67.0555 30.8958 67.9509 32.0012 67.9509Z" fill="#FF9F0D"/>
<path d="M114 21.9831H85.9999V13.9893C85.9999 12.8856 86.8953 11.9908 87.9999 11.9908H104C107.314 11.9908 110 9.30657 110 5.9954C110 2.68423 107.314 0 104 0H85.9999C79.3752 0.00660969 74.0065 5.37121 73.9999 11.9908V21.9831H45.9999C42.6862 21.9831 39.9999 24.6674 39.9999 27.9785V29.977C40.0084 32.5524 41.6657 34.8333 44.1139 35.6387L44.8599 46.0787C43.9119 46.0227 42.9659 45.9648 41.9999 45.9648C39.1031 45.9709 36.213 46.2425 33.3659 46.7761L28.5139 40.481C33.1599 35.8845 33.4179 30.4666 31.0279 27.369C28.6379 24.2714 23.3119 23.1443 17.6979 26.4537L16.3999 24.761C15.9712 24.1749 15.2581 23.8671 14.5371 23.9571C13.8162 24.0471 13.2008 24.5207 12.9296 25.1943C12.6584 25.8678 12.7742 26.6353 13.2319 27.1991L14.5359 28.8938C9.87388 33.4903 9.64588 38.9202 12.0219 42.0058C14.4399 45.1414 19.7859 46.2026 25.3519 42.9211L29.0999 47.7834C14.4839 51.9602 3.99988 62.9917 3.99988 75.9418C3.99514 76.8214 4.0459 77.7005 4.15188 78.5738C4.3926 80.824 5.88087 82.7471 7.99988 83.5459V87.9326C3.97634 87.9276 0.577747 90.915 0.0698122 94.9033C-0.438123 98.8916 2.10333 102.634 5.99988 103.637V107.917C6.00065 110.914 7.131 113.801 9.16588 116.003H1.99988C0.895308 116.003 -0.00012207 116.898 -0.00012207 118.002C-0.00012207 119.105 0.895308 120 1.99988 120H118C119.104 120 120 119.105 120 118.002C120 116.898 119.104 116.003 118 116.003H107.514C109.348 114.019 110.456 111.472 110.656 108.779L115.886 35.6347C118.333 34.8303 119.99 32.5512 120 29.977V27.9785C120 24.6674 117.314 21.9831 114 21.9831ZM15.1839 39.5697C13.5839 37.4873 15.0519 34.2018 16.9999 32.0994L18.1079 33.5363C18.5366 34.1225 19.2497 34.4302 19.9706 34.3402C20.6916 34.2502 21.307 33.7766 21.5781 33.103C21.8493 32.4295 21.7336 31.662 21.2759 31.0982L20.1679 29.6613C22.5859 28.3762 26.2159 27.6808 27.8599 29.8131C29.8479 32.3912 27.1959 36.6299 24.5739 38.6484C21.9519 40.6668 17.1739 42.1477 15.1839 39.5697ZM77.9999 11.9908C77.9999 7.57591 81.5816 3.99694 85.9999 3.99694H104C105.104 3.99694 106 4.89168 106 5.9954C106 7.09913 105.104 7.99387 104 7.99387H87.9999C84.6862 7.99387 81.9999 10.6781 81.9999 13.9893V21.9831H77.9999V11.9908ZM111.136 45.9648H48.8619L48.1479 35.9724H111.852L111.136 45.9648ZM107.42 97.9249H83.7159C83.896 97.2737 83.9914 96.602 83.9999 95.9265C83.9999 91.5116 80.4182 87.9326 75.9999 87.9326V83.5359C78.1118 82.7464 79.5987 80.8356 79.8439 78.5957C79.9518 77.7153 80.0039 76.8288 79.9999 75.9418C79.9999 75.1864 79.9259 74.4449 79.8559 73.7035C83.8007 72.7677 86.4183 69.0274 85.9441 65.0039C85.4699 60.9804 82.0543 57.95 77.9999 57.9556C76.4296 57.9644 74.8976 58.4411 73.5999 59.3245C70.0996 55.3061 65.755 52.1091 60.8759 49.9617H110.852L107.42 97.9249ZM75.9999 91.9295C78.209 91.9295 79.9999 93.719 79.9999 95.9265C79.9999 98.1339 78.209 99.9234 75.9999 99.9234H38.8279L46.8279 91.9295H75.9999ZM77.9999 107.917V103.637C79.1973 103.324 80.3054 102.737 81.2359 101.922H107.134L106.666 108.491C106.346 112.666 102.87 115.895 98.6799 115.911H74.9199C76.9016 113.719 77.9991 110.871 77.9999 107.917ZM75.9459 62.552C76.5621 62.1668 77.273 61.9593 77.9999 61.9525C79.9756 61.9437 81.6584 63.3853 81.9515 65.3377C82.2446 67.2901 81.0592 69.1616 79.1679 69.7325C78.4668 67.1888 77.3803 64.7672 75.9459 62.552ZM31.7159 51.1828L36.4159 57.2801C37.0922 58.1477 38.343 58.3062 39.2147 57.6348C40.0864 56.9634 40.2514 55.7144 39.5839 54.84L36.1419 50.3754C38.0832 50.108 40.0402 49.9698 41.9999 49.9617C60.7479 49.9617 75.9999 61.6168 75.9999 75.9418C76.0023 76.6765 75.9596 77.4106 75.8719 78.1401C75.7688 79.1651 74.9028 79.9439 73.8719 79.9387H10.1199C9.08134 79.9369 8.21485 79.1455 8.11988 78.1121C8.03563 77.3918 7.99556 76.667 7.99988 75.9418C7.99988 64.3507 17.9819 54.5222 31.7159 51.1828ZM11.9999 83.9356H71.9999V87.9326H45.9999C45.4695 87.9327 44.9609 88.1433 44.5859 88.5181L30.0959 102.995L17.4959 88.6061C17.1166 88.1781 16.572 87.9329 15.9999 87.9326H11.9999V83.9356ZM3.99988 95.9265C3.99988 93.719 5.79074 91.9295 7.99988 91.9295H15.0919L22.0919 99.9234H7.99988C5.79074 99.9234 3.99988 98.1339 3.99988 95.9265ZM17.9999 115.911C13.5816 115.911 9.99988 112.332 9.99988 107.917V103.92H25.5999L27.0959 105.629C27.8263 106.46 28.8677 106.952 29.9739 106.99H30.1039C31.1651 106.989 32.1827 106.568 32.9339 105.819L34.8279 103.92H73.9999V107.917C73.9999 112.332 70.4182 115.911 65.9999 115.911H17.9999ZM116 29.977C116 31.0807 115.104 31.9755 114 31.9755H45.9999C44.8953 31.9755 43.9999 31.0807 43.9999 29.977V27.9785C43.9999 26.8748 44.8953 25.9801 45.9999 25.9801H114C115.104 25.9801 116 26.8748 116 27.9785V29.977Z" fill="#FF9F0D"/>
<path d="M98.0001 53.9585C93.5818 53.9585 90.0001 57.5375 90.0001 61.9524C90.0001 66.3673 93.5818 69.9462 98.0001 69.9462C102.418 69.9462 106 66.3673 106 61.9524C106 57.5375 102.418 53.9585 98.0001 53.9585ZM98.0001 65.9493C95.7909 65.9493 94.0001 64.1598 94.0001 61.9524C94.0001 59.7449 95.7909 57.9554 98.0001 57.9554C100.209 57.9554 102 59.7449 102 61.9524C102 64.1598 100.209 65.9493 98.0001 65.9493Z" fill="#FF9F0D"/>
<path d="M91.9996 79.9387C88.6859 79.9387 85.9996 82.623 85.9996 85.9341C85.9996 89.2453 88.6859 91.9295 91.9996 91.9295C95.3133 91.9295 97.9996 89.2453 97.9996 85.9341C97.9996 82.623 95.3133 79.9387 91.9996 79.9387ZM91.9996 87.9326C90.8951 87.9326 89.9996 87.0378 89.9996 85.9341C89.9996 84.8304 90.8951 83.9357 91.9996 83.9357C93.1042 83.9357 93.9996 84.8304 93.9996 85.9341C93.9996 87.0378 93.1042 87.9326 91.9996 87.9326Z" fill="#FF9F0D"/>
</svg>
